<svg baseProfile="tiny" xmlns="http://www.w3.org/2000/svg" width="730.062" height="833.57" viewBox="0 0 730.062 833.57" overflow="scroll"><g fill-rule="evenodd"><path fill="#21A691" d="M0 0h727.485c-1.82 23.683-3.311 46.505-5.361 69.28-10.849 120.511-21.638 241.03-32.843 361.515-9.379 100.867-19.48 201.667-28.687 302.552-.875 9.586-4.787 13.547-13.063 15.917-91.873 26.314-183.745 52.633-275.513 79.305-8.893 2.587-16.555.425-24.665-1.905-89.144-25.639-178.246-51.403-267.501-76.638-11.356-3.209-14.885-8.724-15.917-20.47-14.616-166.801-29.931-333.538-44.98-500.298-5.942-65.871-11.689-131.752-17.4-197.64C.713 21.874.574 12.073 0 0zm283.894 429.721c24.215 8.28 50.034-1.061 76.518 6.231v327.582c6.086 4.151 10.246 3.619 14.352 2.469 74.276-20.765 148.507-41.677 222.85-62.203 8.291-2.287 11.294-6.737 11.844-14.81 2.644-39.118 5.487-78.229 8.483-117.323 2.834-37.002 5.792-73.991 8.971-110.959 5.331-62.04 10.753-124.068 16.373-186.076 3.792-41.788 9.85-83.47 11.376-125.325 1.09-29.823 9.504-59.52 3.933-90.18H359.855v94.681h-226.87c7.16 83.499 13.733 162.608 20.79 241.671 6.247 69.992 13.015 139.936 19.605 209.9.568 6.014-.883 13.064 7.526 15.454 31.06 8.825 62.091 17.748 95.095 27.196-9.883-74.588-19.264-145.402-28.691-216.594 12.89-3.782 24.803-1.535 36.584-1.714z"/><path fill="#FEFFFF" d="M283.894 429.721c-11.781.179-23.693-2.068-36.584 1.716 9.428 71.191 18.808 142.006 28.691 216.594-33.004-9.448-64.035-18.371-95.095-27.196-8.409-2.39-6.958-9.44-7.526-15.454-6.591-69.965-13.358-139.908-19.605-209.9-7.057-79.063-13.629-158.172-20.79-241.671h454.514c-1.383 15.436-2.504 26.537-3.354 37.654-5.748 75.542-11.612 151.084-16.959 226.653-.792 11.24-6.153 14.018-16.134 14.337-15.232.482-30.722-2.484-47.261 2.467 12.697 62.128 25.274 123.675 38.232 187.075-36.681 10.405-72.136 20.462-106.995 30.353-6.091-7.133-6.153-14.212-6.796-21.187-5.752-62.149-11.803-124.268-17.117-186.454-.924-10.799-5.072-14.891-15.524-14.851-37.231.147-74.465-.063-111.697-.136zm-42.622-97.467l.003.157c1.712 1.089 3.42 3.126 5.138 3.126 77.35.03 154.705-.107 232.061-.285 6.106-.015 11.332-1.946 12.061-9.047 2.764-26.909 5.373-53.832 8.212-82.509H238.289v66.839c-.499 7.445-3.215 15.195 2.983 21.719z"/><path fill="#6EC9C2" d="M283.894 429.721c37.233.073 74.467.283 111.695.136 10.452-.04 14.601 4.052 15.524 14.851 5.314 62.187 11.365 124.305 17.117 186.454.643 6.975.705 14.054 6.796 21.187 34.859-9.891 70.314-19.947 106.995-30.353-12.958-63.4-25.535-124.947-38.232-187.075 16.539-4.951 32.029-1.984 47.261-2.467 9.981-.319 15.341-3.097 16.134-14.337 5.348-75.569 11.211-151.111 16.959-226.653.85-11.118 1.972-22.219 3.354-37.654H359.853V59.129h298.739c5.571 30.66-2.843 60.357-3.933 90.18-1.526 41.854-7.584 83.537-11.376 125.325-5.62 62.008-11.042 124.036-16.373 186.076-3.179 36.968-6.137 73.957-8.971 110.959a13072.712 13072.712 0 0 0-8.483 117.323c-.55 8.072-3.553 12.522-11.844 14.81-74.343 20.526-148.574 41.438-222.85 62.203-4.106 1.15-8.265 1.683-14.352-2.469V435.954c-26.483-7.293-52.302 2.047-76.516-6.233z"/><path fill="#6EC9C2" d="M359.862 243.696h138.885c-2.839 28.678-5.448 55.6-8.212 82.509-.729 7.101-5.955 9.032-12.061 9.047-77.356.178-154.711.315-232.061.285-1.717 0-3.426-2.037-5.138-3.126h118.586l.001-88.715z"/><path fill="#21A691" d="M359.862 243.696v88.715H241.276l-.003-.157c.132-7.394 2.393-15.082-2.983-21.719v-66.839h121.572z"/><path fill="#6EC9C2" d="M238.289 310.536c5.376 6.637 3.116 14.325 2.983 21.719-6.198-6.525-3.482-14.275-2.983-21.719z"/></g></svg>